<?xml version="1.0" encoding="UTF-8"?>
<svg xmlns="http://www.w3.org/2000/svg" xmlns:xlink="http://www.w3.org/1999/xlink" width="360px" height="125px" viewBox="0 0 361 125" version="1.1">
<g id="surface1">
<path style=" stroke:none;fill-rule:nonzero;fill:rgb(58.823532%,8.235294%,29.019609%);fill-opacity:1;" d="M 0 103.921875 C 0.140625 107.851562 1.5625 111.628906 4.054688 114.691406 C 6.546875 117.75 9.972656 119.929688 13.820312 120.894531 C 18.980469 122.15625 45.585938 125.03125 61.324219 125.03125 C 77.058594 125.03125 103.675781 122.15625 108.835938 120.894531 C 112.683594 119.929688 116.109375 117.75 118.601562 114.691406 C 121.09375 111.628906 122.515625 107.851562 122.65625 103.921875 L 122.65625 21.046875 C 122.515625 17.117188 121.089844 13.339844 118.597656 10.277344 C 116.105469 7.21875 112.679688 5.042969 108.835938 4.074219 C 103.675781 2.8125 77.070312 -0.0546875 61.324219 -0.0546875 C 45.574219 -0.0546875 18.980469 2.8125 13.820312 4.074219 C 9.976562 5.042969 6.550781 7.21875 4.058594 10.277344 C 1.566406 13.339844 0.140625 17.117188 0 21.046875 Z M 0 103.921875 "/>
<path style=" stroke:none;fill-rule:nonzero;fill:rgb(100%,100%,100%);fill-opacity:1;" d="M 70.765625 60.351562 C 60.230469 58.496094 53.207031 64.085938 53.207031 73.15625 L 53.207031 93.90625 L 36.644531 104.417969 L 36.644531 73.15625 C 36.644531 55.015625 49.320312 42.390625 70.765625 44.949219 Z M 70.765625 60.351562 "/>
<path style=" stroke:none;fill-rule:nonzero;fill:rgb(100%,100%,100%);fill-opacity:1;" d="M 65.175781 29.003906 C 65.175781 30.867188 64.621094 32.6875 63.574219 34.238281 C 62.53125 35.785156 61.046875 36.992188 59.308594 37.707031 C 57.570312 38.421875 55.660156 38.605469 53.816406 38.242188 C 51.972656 37.878906 50.277344 36.980469 48.949219 35.664062 C 47.617188 34.347656 46.714844 32.667969 46.347656 30.839844 C 45.980469 29.015625 46.167969 27.121094 46.886719 25.398438 C 47.605469 23.675781 48.824219 22.207031 50.386719 21.171875 C 51.953125 20.136719 53.789062 19.582031 55.671875 19.582031 C 58.191406 19.582031 60.609375 20.574219 62.390625 22.34375 C 64.175781 24.109375 65.175781 26.503906 65.175781 29.003906 Z M 65.175781 29.003906 "/>
<path style=" stroke:none;fill-rule:nonzero;fill:rgb(96.470588%,67.058825%,71.372551%);fill-opacity:1;" d="M 74.726562 59.101562 C 74.75 59.671875 74.960938 60.226562 75.324219 60.671875 C 75.691406 61.117188 76.1875 61.4375 76.75 61.582031 C 79.046875 61.945312 81.363281 62.144531 83.6875 62.1875 C 86.015625 62.148438 88.335938 61.945312 90.636719 61.582031 C 91.195312 61.4375 91.695312 61.117188 92.058594 60.671875 C 92.425781 60.226562 92.632812 59.671875 92.660156 59.101562 L 92.660156 46.984375 C 92.636719 46.410156 92.425781 45.863281 92.0625 45.417969 C 91.695312 44.972656 91.195312 44.65625 90.636719 44.511719 C 88.335938 44.152344 86.015625 43.949219 83.6875 43.910156 C 81.363281 43.949219 79.046875 44.152344 76.75 44.511719 C 76.1875 44.65625 75.6875 44.972656 75.324219 45.417969 C 74.960938 45.863281 74.75 46.410156 74.726562 46.984375 Z M 74.726562 59.101562 "/>
<path style=" stroke:none;fill-rule:nonzero;fill:rgb(58.823532%,8.235294%,29.019609%);fill-opacity:1;" d="M 251.09375 33.3125 C 253.335938 35.433594 254.457031 38.613281 254.457031 42.859375 L 254.457031 59.535156 L 247.613281 59.535156 L 247.613281 43.726562 C 247.757812 41.648438 247.09375 39.59375 245.761719 37.976562 C 245.085938 37.3125 244.277344 36.796875 243.386719 36.464844 C 242.496094 36.128906 241.542969 35.988281 240.59375 36.046875 C 239.492188 35.988281 238.390625 36.160156 237.359375 36.550781 C 236.328125 36.9375 235.390625 37.539062 234.609375 38.308594 C 233.03125 40.105469 232.242188 42.445312 232.402344 44.820312 L 232.402344 59.535156 L 225.5625 59.535156 L 225.5625 30.4375 L 232.070312 30.4375 L 232.070312 34.191406 C 233.222656 32.839844 234.691406 31.796875 236.351562 31.148438 C 238.207031 30.421875 240.183594 30.0625 242.175781 30.085938 C 243.800781 30.003906 245.421875 30.242188 246.953125 30.789062 C 248.480469 31.335938 249.886719 32.179688 251.082031 33.269531 "/>
<path style=" stroke:none;fill-rule:nonzero;fill:rgb(58.823532%,8.235294%,29.019609%);fill-opacity:1;" d="M 207.027344 60.183594 C 203.984375 60.226562 200.992188 59.375 198.4375 57.734375 C 195.882812 56.089844 193.875 53.730469 192.679688 50.953125 C 191.480469 48.179688 191.140625 45.113281 191.707031 42.148438 C 192.273438 39.179688 193.71875 36.449219 195.855469 34.296875 C 197.992188 32.148438 200.726562 30.675781 203.710938 30.070312 C 206.695312 29.460938 209.792969 29.75 212.613281 30.894531 C 215.433594 32.039062 217.84375 33.988281 219.539062 36.492188 C 221.238281 39 222.144531 41.949219 222.144531 44.96875 C 222.171875 48.972656 220.597656 52.824219 217.761719 55.675781 C 214.929688 58.527344 211.070312 60.148438 207.027344 60.183594 Z M 207.230469 36.640625 C 205.535156 36.621094 203.867188 37.101562 202.445312 38.019531 C 201.023438 38.941406 199.910156 40.257812 199.242188 41.804688 C 198.578125 43.355469 198.394531 45.066406 198.710938 46.71875 C 199.03125 48.371094 199.835938 49.894531 201.03125 51.089844 C 202.222656 52.289062 203.75 53.109375 205.414062 53.445312 C 207.078125 53.78125 208.804688 53.617188 210.378906 52.980469 C 211.949219 52.339844 213.292969 51.253906 214.238281 49.855469 C 215.1875 48.457031 215.691406 46.8125 215.691406 45.128906 C 215.691406 42.894531 214.804688 40.753906 213.21875 39.164062 C 211.636719 37.574219 209.484375 36.667969 207.230469 36.640625 Z M 207.230469 36.640625 "/>
<path style=" stroke:none;fill-rule:nonzero;fill:rgb(58.823532%,8.235294%,29.019609%);fill-opacity:1;" d="M 273.8125 103.792969 L 273.8125 74.695312 L 267.261719 74.695312 L 267.261719 77.453125 C 265.019531 75.738281 262.339844 74.675781 259.523438 74.394531 C 256.710938 74.113281 253.871094 74.617188 251.328125 75.851562 C 248.789062 77.085938 246.648438 79.003906 245.152344 81.382812 C 243.652344 83.765625 242.859375 86.511719 242.859375 89.316406 C 242.859375 92.121094 243.652344 94.871094 245.152344 97.25 C 246.648438 99.632812 248.789062 101.546875 251.328125 102.785156 C 253.871094 104.019531 256.710938 104.523438 259.523438 104.242188 C 262.339844 103.960938 265.019531 102.898438 267.261719 101.183594 L 267.261719 103.792969 Z M 258.019531 98.257812 C 256.234375 98.257812 254.488281 97.730469 253.007812 96.75 C 251.523438 95.765625 250.363281 94.371094 249.683594 92.734375 C 249 91.101562 248.820312 89.304688 249.171875 87.570312 C 249.515625 85.832031 250.378906 84.238281 251.636719 82.988281 C 252.902344 81.738281 254.507812 80.886719 256.257812 80.542969 C 258.011719 80.195312 259.824219 80.375 261.472656 81.050781 C 263.121094 81.726562 264.53125 82.875 265.523438 84.34375 C 266.515625 85.816406 267.046875 87.542969 267.046875 89.3125 C 267.042969 91.683594 266.089844 93.957031 264.398438 95.632812 C 262.707031 97.308594 260.414062 98.253906 258.019531 98.257812 "/>
<path style=" stroke:none;fill-rule:nonzero;fill:rgb(58.823532%,8.235294%,29.019609%);fill-opacity:1;" d="M 329.386719 30.414062 L 329.386719 33.332031 C 327.144531 31.617188 324.46875 30.554688 321.652344 30.273438 C 318.835938 29.992188 315.996094 30.496094 313.457031 31.730469 C 310.914062 32.96875 308.773438 34.882812 307.277344 37.265625 C 305.78125 39.644531 304.984375 42.394531 304.984375 45.199219 C 304.984375 48.003906 305.78125 50.75 307.277344 53.132812 C 308.773438 55.511719 310.914062 57.429688 313.457031 58.664062 C 315.996094 59.898438 318.835938 60.40625 321.652344 60.121094 C 324.46875 59.839844 327.144531 58.777344 329.386719 57.0625 L 329.386719 59.523438 L 335.9375 59.523438 L 335.9375 30.414062 Z M 320.144531 54.136719 C 318.363281 54.136719 316.617188 53.613281 315.128906 52.632812 C 313.644531 51.652344 312.488281 50.253906 311.800781 48.621094 C 311.117188 46.988281 310.933594 45.191406 311.285156 43.453125 C 311.628906 41.71875 312.488281 40.125 313.75 38.871094 C 315.011719 37.621094 316.621094 36.769531 318.371094 36.421875 C 320.121094 36.074219 321.9375 36.253906 323.585938 36.929688 C 325.238281 37.605469 326.648438 38.75 327.636719 40.222656 C 328.628906 41.695312 329.160156 43.421875 329.160156 45.191406 C 329.15625 47.5625 328.207031 49.832031 326.519531 51.507812 C 324.828125 53.183594 322.539062 54.128906 320.144531 54.136719 Z M 320.144531 54.136719 "/>
<path style=" stroke:none;fill-rule:nonzero;fill:rgb(58.823532%,8.235294%,29.019609%);fill-opacity:1;" d="M 209.40625 98.171875 C 207.640625 98.546875 205.800781 98.417969 204.109375 97.796875 C 202.414062 97.175781 200.929688 96.09375 199.835938 94.671875 L 200.175781 94.5625 L 222.585938 87.136719 C 222.042969 84.195312 220.757812 81.4375 218.847656 79.117188 C 217.234375 77.152344 215.085938 75.679688 212.660156 74.875 C 210.070312 74.0625 207.324219 73.867188 204.644531 74.296875 C 201.964844 74.722656 199.421875 75.769531 197.222656 77.347656 C 195.136719 78.902344 193.53125 81.003906 192.585938 83.414062 C 191.609375 85.917969 191.328125 88.636719 191.773438 91.285156 C 191.980469 92.707031 192.386719 94.09375 192.984375 95.402344 C 195.703125 101.640625 202.671875 105.226562 209.886719 104.132812 L 210.59375 104.015625 C 213.164062 103.554688 215.570312 102.441406 217.578125 100.789062 C 219.585938 99.132812 221.132812 96.992188 222.058594 94.574219 L 216.535156 92.453125 C 215.921875 93.914062 214.945312 95.195312 213.699219 96.1875 C 212.453125 97.175781 210.976562 97.839844 209.40625 98.117188 Z M 198.441406 90.003906 C 198.199219 88.824219 198.195312 87.605469 198.425781 86.425781 C 198.660156 85.242188 199.128906 84.121094 199.800781 83.117188 C 200.484375 82.1875 201.355469 81.410156 202.355469 80.832031 C 203.359375 80.253906 204.472656 79.890625 205.625 79.765625 C 207.519531 79.425781 209.476562 79.707031 211.195312 80.570312 C 212.792969 81.398438 214.050781 82.75 214.757812 84.390625 L 198.453125 90.003906 Z M 198.441406 90.003906 "/>
<path style=" stroke:none;fill-rule:nonzero;fill:rgb(58.823532%,8.235294%,29.019609%);fill-opacity:1;" d="M 225.5625 92.738281 C 225.585938 94.953125 226.242188 97.113281 227.457031 98.972656 C 228.667969 100.835938 230.382812 102.316406 232.40625 103.253906 C 234.433594 104.1875 236.683594 104.539062 238.898438 104.261719 C 241.117188 103.988281 243.210938 103.097656 244.9375 101.691406 L 240.65625 96.453125 C 239.75 97.183594 238.613281 97.582031 237.445312 97.578125 C 236.132812 97.589844 234.871094 97.089844 233.933594 96.183594 C 232.996094 95.277344 232.460938 94.039062 232.445312 92.738281 L 232.445312 63.894531 L 225.605469 63.894531 Z M 225.5625 92.738281 "/>
<path style=" stroke:none;fill-rule:nonzero;fill:rgb(58.823532%,8.235294%,29.019609%);fill-opacity:1;" d="M 356.664062 52.003906 C 355.761719 52.738281 354.621094 53.136719 353.453125 53.128906 C 352.800781 53.136719 352.160156 53.015625 351.558594 52.777344 C 350.953125 52.539062 350.40625 52.1875 349.941406 51.734375 C 349.476562 51.285156 349.105469 50.75 348.851562 50.160156 C 348.59375 49.570312 348.460938 48.933594 348.453125 48.289062 L 348.453125 20.304688 L 341.613281 24.652344 L 341.613281 48.289062 C 341.640625 50.503906 342.296875 52.664062 343.507812 54.523438 C 344.71875 56.382812 346.433594 57.867188 348.460938 58.804688 C 350.484375 59.738281 352.734375 60.089844 354.953125 59.8125 C 357.167969 59.535156 359.261719 58.644531 360.988281 57.242188 Z M 356.664062 52.003906 "/>
<path style=" stroke:none;fill-rule:nonzero;fill:rgb(58.823532%,8.235294%,29.019609%);fill-opacity:1;" d="M 181.3125 59.480469 L 188.496094 59.480469 L 188.496094 23 C 188.492188 22.277344 188.257812 21.574219 187.824219 20.992188 C 187.394531 20.40625 186.785156 19.976562 186.09375 19.753906 C 185.398438 19.535156 184.648438 19.539062 183.957031 19.765625 C 183.265625 19.992188 182.660156 20.429688 182.234375 21.015625 L 171.527344 35.867188 L 160.824219 21.015625 C 160.398438 20.425781 159.792969 19.984375 159.101562 19.757812 C 158.40625 19.53125 157.65625 19.527344 156.960938 19.75 C 156.265625 19.972656 155.660156 20.40625 155.230469 20.992188 C 154.800781 21.578125 154.570312 22.285156 154.570312 23.011719 L 154.570312 59.492188 L 161.753906 59.492188 L 161.753906 35.367188 L 162.203125 35.910156 C 164.964844 39.335938 169.171875 44.503906 169.410156 44.726562 C 169.988281 45.269531 170.753906 45.578125 171.550781 45.585938 C 172.347656 45.570312 173.109375 45.265625 173.691406 44.726562 C 173.914062 44.503906 178.125 39.335938 180.894531 35.910156 L 181.335938 35.367188 Z M 181.3125 59.480469 "/>
<path style=" stroke:none;fill-rule:nonzero;fill:rgb(58.823532%,8.235294%,29.019609%);fill-opacity:1;" d="M 301.59375 32.335938 L 294.753906 32.335938 L 294.753906 59.523438 L 301.59375 59.523438 Z M 301.59375 32.335938 "/>
<path style=" stroke:none;fill-rule:nonzero;fill:rgb(58.823532%,8.235294%,29.019609%);fill-opacity:1;" d="M 302.480469 23.933594 C 302.480469 23.09375 302.230469 22.273438 301.761719 21.574219 C 301.289062 20.878906 300.621094 20.332031 299.839844 20.011719 C 299.054688 19.691406 298.195312 19.605469 297.363281 19.769531 C 296.53125 19.933594 295.769531 20.339844 295.171875 20.933594 C 294.570312 21.527344 294.164062 22.28125 294 23.105469 C 293.835938 23.929688 293.917969 24.78125 294.242188 25.554688 C 294.566406 26.332031 295.117188 26.996094 295.820312 27.460938 C 296.523438 27.925781 297.351562 28.175781 298.199219 28.175781 C 299.335938 28.175781 300.421875 27.730469 301.226562 26.933594 C 302.03125 26.136719 302.480469 25.058594 302.480469 23.933594 Z M 302.480469 23.933594 "/>
<path style=" stroke:none;fill-rule:nonzero;fill:rgb(58.823532%,8.235294%,29.019609%);fill-opacity:1;" d="M 302.492188 74.738281 L 302.492188 88.941406 C 302.492188 93.746094 299.035156 97.429688 294.441406 97.429688 C 289.847656 97.429688 286.390625 93.800781 286.390625 88.941406 L 286.390625 74.769531 L 279.539062 74.769531 L 279.539062 88.941406 C 279.488281 90.914062 279.839844 92.878906 280.566406 94.714844 C 281.292969 96.554688 282.378906 98.230469 283.769531 99.648438 C 285.15625 101.0625 286.816406 102.191406 288.648438 102.964844 C 290.480469 103.738281 292.449219 104.144531 294.441406 104.152344 C 297.332031 104.164062 300.148438 103.269531 302.492188 101.597656 L 302.492188 105.289062 C 302.492188 112.714844 296.488281 118.445312 288.574219 118.445312 C 279.089844 118.445312 274.5625 113.140625 273.855469 108.238281 L 267.261719 108.238281 C 268.105469 118.050781 276.828125 125.019531 288.53125 125.019531 C 293.9375 125.082031 299.164062 123.117188 303.167969 119.515625 C 305.136719 117.699219 306.703125 115.496094 307.769531 113.046875 C 308.832031 110.597656 309.367188 107.957031 309.34375 105.289062 L 309.34375 74.769531 Z M 302.492188 74.738281 "/>
<path style=" stroke:none;fill-rule:nonzero;fill:rgb(58.823532%,8.235294%,29.019609%);fill-opacity:1;" d="M 282.246094 20.101562 L 282.246094 33.332031 C 280.007812 31.617188 277.332031 30.554688 274.515625 30.273438 C 271.699219 29.992188 268.859375 30.496094 266.316406 31.730469 C 263.777344 32.96875 261.636719 34.882812 260.140625 37.265625 C 258.644531 39.644531 257.847656 42.394531 257.847656 45.199219 C 257.847656 48.003906 258.644531 50.75 260.140625 53.132812 C 261.636719 55.511719 263.777344 57.429688 266.316406 58.664062 C 268.859375 59.898438 271.699219 60.40625 274.515625 60.121094 C 277.332031 59.839844 280.007812 58.777344 282.246094 57.0625 L 282.246094 59.523438 L 289.058594 59.523438 L 289.058594 20.101562 Z M 273.007812 54.136719 C 271.226562 54.136719 269.480469 53.609375 267.996094 52.628906 C 266.511719 51.644531 265.355469 50.25 264.671875 48.613281 C 263.988281 46.980469 263.808594 45.183594 264.15625 43.449219 C 264.503906 41.710938 265.363281 40.121094 266.628906 38.867188 C 267.890625 37.617188 269.5 36.765625 271.25 36.421875 C 273 36.074219 274.8125 36.253906 276.460938 36.929688 C 278.113281 37.605469 279.523438 38.753906 280.515625 40.222656 C 281.503906 41.695312 282.035156 43.421875 282.035156 45.191406 C 282.03125 47.5625 281.078125 49.835938 279.386719 51.511719 C 277.695312 53.1875 275.402344 54.132812 273.007812 54.136719 "/>
<path style=" stroke:none;fill-rule:nonzero;fill:rgb(58.823532%,8.235294%,29.019609%);fill-opacity:1;" d="M 183.175781 103.792969 L 192.105469 103.792969 L 182.042969 89.671875 L 182.265625 89.535156 C 184.136719 88.488281 185.71875 87.003906 186.886719 85.214844 C 188.050781 83.425781 188.761719 81.386719 188.957031 79.265625 C 189.128906 77.320312 188.902344 75.363281 188.285156 73.507812 C 187.667969 71.652344 186.675781 69.941406 185.371094 68.476562 C 184.082031 67.042969 182.503906 65.890625 180.734375 65.101562 C 178.96875 64.3125 177.054688 63.902344 175.113281 63.894531 L 162.566406 63.894531 C 160.402344 63.921875 158.335938 64.800781 156.824219 66.335938 C 155.308594 67.871094 154.472656 69.9375 154.496094 72.085938 L 154.496094 103.792969 L 161.691406 103.792969 L 161.691406 91.636719 L 174.535156 91.636719 Z M 161.9375 84.476562 L 161.691406 84.476562 L 161.691406 73.359375 C 161.683594 72.746094 161.921875 72.15625 162.355469 71.71875 C 162.785156 71.28125 163.375 71.03125 163.992188 71.023438 L 174.867188 71.023438 C 176.648438 70.964844 178.378906 71.597656 179.691406 72.792969 C 181.003906 73.984375 181.792969 75.640625 181.886719 77.402344 C 181.980469 79.164062 181.375 80.890625 180.195312 82.214844 C 179.015625 83.535156 177.363281 84.347656 175.585938 84.476562 Z M 161.9375 84.476562 "/>
</g>
</svg>
